<svg xmlns="http://www.w3.org/2000/svg" width="82" height="55.427" viewBox="0 0 82 55.427"><defs><style>.a{fill:#ed3a56;}</style></defs><g transform="translate(0 -60.6)"><g transform="translate(0 60.6)"><path class="a" d="M74.019,82.087V68.756c0-5.964-4.21-8.156-8.156-8.156H15.874c-3.947,0-8.156,2.1-8.156,8.156v13.33C3.771,82.525,0,85.156,0,91.207v10.349a3.144,3.144,0,0,0,3.157,3.157H4.21v8.156a3.144,3.144,0,0,0,3.157,3.157h2.982a3.144,3.144,0,0,0,3.157-3.157v-8.244H68.494v8.244a3.144,3.144,0,0,0,3.157,3.157h2.982a3.144,3.144,0,0,0,3.157-3.157v-8.244h1.052A3.144,3.144,0,0,0,82,101.468V91.207C81.737,85.156,77.966,82.525,74.019,82.087ZM10.7,68.756h.175c0-4.122,2.719-5,5-5H65.863c2.28,0,5,.877,5,5V82H68.494V74.457A3.144,3.144,0,0,0,65.337,71.3H46.043a3.144,3.144,0,0,0-3.157,3.157V82H39.2V74.457A3.144,3.144,0,0,0,36.045,71.3H16.751a3.144,3.144,0,0,0-3.157,3.157V82H10.7Zm54.637,5.7V82H46.043V74.457Zm-29.117,0V82H16.926V74.457ZM10.261,112.87H7.279v-8.244h2.982v8.244Zm64.2,0H71.476v-8.244h2.982Zm4.122-11.313H3.07V96.908H78.58Zm0-7.805H3.07V91.207c0-5.262,3.859-6.051,6.051-6.051H72.528c2.28,0,6.051.789,6.051,6.051v2.543Z" transform="translate(0 -60.6)"/></g></g></svg>