<?xml version="1.0" encoding="UTF-8"?><svg id="b" xmlns="http://www.w3.org/2000/svg" viewBox="0 0 167.941 85.702"><defs><style>.d{fill:#b9cbfe;}</style></defs><g id="c"><g><g><path class="d" d="M101.095,52.764c-4.22-1.12-9.6-1.71-16.46-1.71s-12.24,.59-16.46,1.71c-7.16,5.37-7.72,15.37-7.77,27.04,0,1.66,1.34,3.01,3.01,3.01h42.45c1.66,0,3.01-1.35,3-3.01-.05-11.67-.61-21.67-7.77-27.04Zm-14.95,20.9c-.94,.51-2.07,.51-3.01,0-2.91-1.55-9.02-5.34-9.02-9.77,0-2.9,1.23-5.26,5.27-5.26s5.26,2.36,5.26,5.26c0-2.9,1.21-5.26,5.26-5.26s5.25,2.36,5.25,5.26c0,4.43-6.1,8.22-9.01,9.77Z"/><path class="d" d="M84.635,51.054c-6.86,0-12.24,.59-16.46,1.71,1.52-1.14,3.34-2.08,5.53-2.77,2.94-.94,6.54-1.44,10.93-1.44s7.99,.5,10.93,1.44c2.19,.69,4.01,1.63,5.53,2.77-4.22-1.12-9.6-1.71-16.46-1.71Z"/></g><path class="d" d="M102.147,30.583c0,9.924,0,17.969-17.509,17.969s-17.509-8.045-17.509-17.969,7.839-9.894,17.509-9.894,17.509-.03,17.509,9.894Z"/><path d="M84.638,51.051c-25.525,0-25.525-12.977-25.525-25.526,0-14.075,11.45-25.525,25.525-25.525s25.526,11.451,25.526,25.525c0,12.549,0,25.526-25.526,25.526Zm0-46.051c-11.317,0-20.525,9.208-20.525,20.525,0,12.8,0,20.526,20.525,20.526s20.526-7.726,20.526-20.526c0-11.318-9.208-20.525-20.526-20.525Z"/><path d="M121.405,82.814c0,1.39-1.12,2.5-2.5,2.5s-2.5-1.11-2.5-2.5c0-14.99,0-26-15.31-30.05-4.22-1.12-9.6-1.71-16.46-1.71s-12.24,.59-16.46,1.71c-15.3,4.05-15.3,15.06-15.3,30.05,0,1.39-1.12,2.5-2.5,2.5-1.39,0-2.5-1.11-2.5-2.5,0-6.6,0-13.07,1.56-18.7,.47-1.68,1.07-3.28,1.86-4.79,2.72-5.22,7.61-9.33,16.38-11.52,1.77-.44,3.71-.8,5.82-1.08,3.28-.44,6.97-.67,11.14-.67s7.86,.23,11.14,.67c2.11,.27,4.05,.64,5.83,1.08,8.39,2.1,13.23,5.94,16.01,10.85,.84,1.48,1.5,3.07,2.01,4.73,1.78,5.79,1.78,12.54,1.78,19.43Z"/><path d="M165.441,85.702c-1.381,0-2.5-1.119-2.5-2.5,0-14.579,0-24.21-24.211-24.21-9.511,0-15.893,1.544-19.511,4.721-1.036,.911-2.617,.809-3.528-.229s-.809-2.617,.229-3.528c4.634-4.069,11.882-5.964,22.81-5.964,29.211,0,29.211,14.188,29.211,29.21,0,1.381-1.119,2.5-2.5,2.5Z"/><path d="M2.5,85.668c-1.381,0-2.5-1.119-2.5-2.5,0-15.022,0-29.211,29.211-29.211,10.928,0,18.176,1.895,22.81,5.964,1.038,.911,1.141,2.49,.229,3.528-.91,1.039-2.49,1.14-3.528,.229-3.618-3.176-10-4.721-19.511-4.721-24.211,0-24.211,9.632-24.211,24.211,0,1.381-1.119,2.5-2.5,2.5Z"/><path d="M28.136,51.051c-17.69,0-17.69-9.399-17.69-17.691,0-9.755,7.936-17.691,17.69-17.691s17.691,7.937,17.691,17.691c0,8.292,0,17.691-17.691,17.691Zm0-30.383c-6.997,0-12.69,5.693-12.69,12.691,0,8.45,0,12.691,12.69,12.691s12.691-4.241,12.691-12.691c0-6.998-5.693-12.691-12.691-12.691Z"/><path d="M141.506,51.051c-17.691,0-17.691-9.399-17.691-17.691,0-9.755,7.937-17.691,17.691-17.691s17.691,7.937,17.691,17.691c0,8.292,0,17.691-17.691,17.691Zm0-30.383c-6.998,0-12.691,5.693-12.691,12.691,0,8.45,0,12.691,12.691,12.691s12.691-4.241,12.691-12.691c0-6.998-5.693-12.691-12.691-12.691Z"/></g></g></svg>