<?xml version="1.0" encoding="UTF-8"?>
<svg xmlns="http://www.w3.org/2000/svg" xmlns:xlink="http://www.w3.org/1999/xlink" width="280" height="280" viewBox="0 0 280 280" version="1.1">
<defs>
<filter id="alpha" filterUnits="objectBoundingBox" x="0%" y="0%" width="100%" height="100%">
  <feColorMatrix type="matrix" in="SourceGraphic" values="0 0 0 0 1 0 0 0 0 1 0 0 0 0 1 0 0 0 1 0"/>
</filter>
<mask id="mask0">
  <g filter="url(#alpha)">
<rect x="0" y="0" width="280" height="280" style="fill:rgb(0%,0%,0%);fill-opacity:0.2;stroke:none;"/>
  </g>
</mask>
<clipPath id="clip1">
  <rect x="0" y="0" width="280" height="280"/>
</clipPath>
<g id="surface5" clip-path="url(#clip1)">
<path style=" stroke:none;fill-rule:nonzero;fill:rgb(99.215686%,34.901961%,39.607843%);fill-opacity:1;" d="M 279.78125 139.789062 C 279.78125 216.988281 218.800781 279.574219 143.578125 279.574219 C 68.355469 279.574219 7.375 216.988281 7.375 139.789062 C 7.375 62.585938 68.355469 0 143.578125 0 C 218.800781 0 279.78125 62.585938 279.78125 139.789062 Z M 279.78125 139.789062 "/>
</g>
<mask id="mask1">
  <g filter="url(#alpha)">
<rect x="0" y="0" width="280" height="280" style="fill:rgb(0%,0%,0%);fill-opacity:0.0705882;stroke:none;"/>
  </g>
</mask>
<mask id="mask2">
  <g filter="url(#alpha)">
<rect x="0" y="0" width="280" height="280" style="fill:rgb(0%,0%,0%);fill-opacity:0.6;stroke:none;"/>
  </g>
</mask>
<clipPath id="clip3">
  <rect x="0" y="0" width="280" height="280"/>
</clipPath>
<g id="surface9" clip-path="url(#clip3)">
<path style=" stroke:none;fill-rule:nonzero;fill:rgb(0%,0%,0%);fill-opacity:1;" d="M 262.085938 228.308594 L 77.824219 228.308594 C 76.664062 228.320312 75.550781 227.832031 74.757812 226.960938 C 73.964844 226.089844 73.5625 224.917969 73.652344 223.730469 L 81.246094 100.132812 C 81.433594 97.578125 83.488281 95.597656 85.984375 95.554688 L 270.246094 95.554688 C 271.40625 95.542969 272.519531 96.03125 273.3125 96.902344 C 274.105469 97.773438 274.507812 98.945312 274.421875 100.132812 L 266.828125 223.730469 C 266.636719 226.285156 264.582031 228.269531 262.085938 228.308594 Z M 262.085938 228.308594 "/>
</g>
<clipPath id="clip2">
  <rect x="0" y="0" width="280" height="280"/>
</clipPath>
<g id="surface11" clip-path="url(#clip2)">
<path style=" stroke:none;fill-rule:nonzero;fill:rgb(14.901961%,19.607843%,21.960784%);fill-opacity:1;" d="M 262.085938 228.308594 L 77.824219 228.308594 C 76.664062 228.320312 75.550781 227.832031 74.757812 226.960938 C 73.964844 226.089844 73.5625 224.917969 73.652344 223.730469 L 81.246094 100.132812 C 81.433594 97.578125 83.488281 95.597656 85.984375 95.554688 L 270.246094 95.554688 C 271.40625 95.542969 272.519531 96.03125 273.3125 96.902344 C 274.105469 97.773438 274.507812 98.945312 274.421875 100.132812 L 266.828125 223.730469 C 266.636719 226.285156 264.582031 228.269531 262.085938 228.308594 Z M 262.085938 228.308594 "/>
<use xlink:href="#surface9" mask="url(#mask2)"/>
</g>
<mask id="mask3">
  <g filter="url(#alpha)">
<rect x="0" y="0" width="280" height="280" style="fill:rgb(0%,0%,0%);fill-opacity:0.101961;stroke:none;"/>
  </g>
</mask>
<clipPath id="clip4">
  <rect x="0" y="0" width="280" height="280"/>
</clipPath>
<g id="surface14" clip-path="url(#clip4)">
<path style=" stroke:none;fill-rule:nonzero;fill:rgb(100%,100%,100%);fill-opacity:1;" d="M 179.933594 99.292969 L 119.328125 217.515625 L 74.621094 217.515625 C 74.167969 217.523438 73.730469 217.332031 73.421875 216.992188 C 73.109375 216.652344 72.953125 216.195312 72.988281 215.734375 L 80.035156 101.074219 C 80.109375 100.082031 80.90625 99.308594 81.878906 99.292969 Z M 179.933594 99.292969 "/>
</g>
<mask id="mask4">
  <g filter="url(#alpha)">
<rect x="0" y="0" width="280" height="280" style="fill:rgb(0%,0%,0%);fill-opacity:0.101961;stroke:none;"/>
  </g>
</mask>
<clipPath id="clip5">
  <rect x="0" y="0" width="280" height="280"/>
</clipPath>
<g id="surface17" clip-path="url(#clip5)">
<path style=" stroke:none;fill-rule:nonzero;fill:rgb(100%,100%,100%);fill-opacity:1;" d="M 233.007812 99.292969 L 172.402344 217.515625 L 158.273438 217.515625 L 218.878906 99.292969 Z M 233.007812 99.292969 "/>
</g>
<mask id="mask5">
  <g filter="url(#alpha)">
<rect x="0" y="0" width="280" height="280" style="fill:rgb(0%,0%,0%);fill-opacity:0.101961;stroke:none;"/>
  </g>
</mask>
<clipPath id="clip6">
  <rect x="0" y="0" width="280" height="280"/>
</clipPath>
<g id="surface20" clip-path="url(#clip6)">
<path style=" stroke:none;fill-rule:nonzero;fill:rgb(100%,100%,100%);fill-opacity:1;" d="M 265.453125 101.074219 L 258.402344 215.738281 C 258.332031 216.730469 257.53125 217.503906 256.558594 217.519531 L 187.6875 217.519531 L 248.292969 99.296875 L 263.820312 99.296875 C 264.269531 99.292969 264.707031 99.480469 265.015625 99.816406 C 265.328125 100.15625 265.484375 100.613281 265.453125 101.074219 Z M 265.453125 101.074219 "/>
</g>
<mask id="mask6">
  <g filter="url(#alpha)">
<rect x="0" y="0" width="280" height="280" style="fill:rgb(0%,0%,0%);fill-opacity:0.4;stroke:none;"/>
  </g>
</mask>
<clipPath id="clip7">
  <rect x="0" y="0" width="280" height="280"/>
</clipPath>
<g id="surface23" clip-path="url(#clip7)">
<path style=" stroke:none;fill-rule:nonzero;fill:rgb(100%,100%,100%);fill-opacity:1;" d="M 177.808594 99.390625 C 177.753906 100.140625 177.148438 100.722656 176.417969 100.734375 C 176.078125 100.738281 175.75 100.59375 175.519531 100.339844 C 175.285156 100.082031 175.167969 99.738281 175.195312 99.390625 C 175.25 98.640625 175.851562 98.058594 176.582031 98.050781 C 176.921875 98.046875 177.25 98.1875 177.484375 98.445312 C 177.714844 98.699219 177.832031 99.042969 177.808594 99.390625 Z M 177.808594 99.390625 "/>
</g>
<mask id="mask7">
  <g filter="url(#alpha)">
<rect x="0" y="0" width="280" height="280" style="fill:rgb(0%,0%,0%);fill-opacity:0.329412;stroke:none;"/>
  </g>
</mask>
<clipPath id="clip8">
  <rect x="0" y="0" width="280" height="280"/>
</clipPath>
<g id="surface26" clip-path="url(#clip8)">
<path style=" stroke:none;fill-rule:nonzero;fill:rgb(99.215686%,34.901961%,39.607843%);fill-opacity:1;" d="M 186.480469 197.59375 L 221.007812 197.59375 L 223.707031 169.910156 L 189.378906 169.910156 Z M 186.480469 197.59375 "/>
</g>
<mask id="mask8">
  <g filter="url(#alpha)">
<rect x="0" y="0" width="280" height="280" style="fill:rgb(0%,0%,0%);fill-opacity:0.329412;stroke:none;"/>
  </g>
</mask>
<clipPath id="clip9">
  <rect x="0" y="0" width="280" height="280"/>
</clipPath>
<g id="surface29" clip-path="url(#clip9)">
<path style=" stroke:none;fill-rule:nonzero;fill:rgb(99.215686%,34.901961%,39.607843%);fill-opacity:1;" d="M 161.808594 182.066406 L 137.609375 182.066406 L 137.109375 157.230469 L 162.144531 157.230469 Z M 161.808594 182.066406 "/>
</g>
</defs>
<g id="surface1">
<use xlink:href="#surface5" mask="url(#mask0)"/>
<use xlink:href="#surface11" mask="url(#mask1)"/>
<path style=" stroke:none;fill-rule:nonzero;fill:rgb(10.980392%,10.980392%,10.980392%);fill-opacity:1;" d="M 260.710938 228.308594 L 76.449219 228.308594 C 75.289062 228.320312 74.175781 227.832031 73.382812 226.964844 C 72.589844 226.09375 72.1875 224.921875 72.273438 223.734375 L 79.867188 100.136719 C 80.054688 97.582031 82.109375 95.601562 84.605469 95.558594 L 268.867188 95.558594 C 270.027344 95.546875 271.140625 96.035156 271.933594 96.90625 C 272.726562 97.777344 273.128906 98.945312 273.042969 100.136719 L 265.453125 223.730469 C 265.261719 226.285156 263.207031 228.269531 260.710938 228.308594 Z M 260.710938 228.308594 "/>
<path style=" stroke:none;fill-rule:nonzero;fill:rgb(100%,78.431373%,80%);fill-opacity:1;" d="M 76.429688 219.261719 L 83.472656 104.605469 C 83.546875 103.609375 84.34375 102.839844 85.316406 102.824219 L 267.261719 102.824219 C 267.710938 102.820312 268.144531 103.011719 268.453125 103.347656 C 268.761719 103.6875 268.917969 104.140625 268.882812 104.605469 L 261.839844 219.261719 C 261.765625 220.257812 260.964844 221.03125 259.996094 221.046875 L 78.054688 221.046875 C 77.601562 221.050781 77.167969 220.859375 76.859375 220.519531 C 76.550781 220.183594 76.394531 219.726562 76.429688 219.261719 Z M 76.429688 219.261719 "/>
<use xlink:href="#surface14" mask="url(#mask3)"/>
<use xlink:href="#surface17" mask="url(#mask4)"/>
<use xlink:href="#surface20" mask="url(#mask5)"/>
<use xlink:href="#surface23" mask="url(#mask6)"/>
<path style=" stroke:none;fill-rule:nonzero;fill:rgb(100%,100%,100%);fill-opacity:1;" d="M 165.253906 116.382812 L 176.050781 116.382812 L 176.050781 139.082031 L 165.253906 139.082031 Z M 165.253906 116.382812 "/>
<path style=" stroke:none;fill-rule:nonzero;fill:rgb(99.215686%,34.901961%,39.607843%);fill-opacity:1;" d="M 178.328125 117.339844 L 163.164062 117.339844 L 161.996094 110.761719 L 179.585938 111.550781 Z M 178.328125 117.339844 "/>
<path style=" stroke:none;fill-rule:nonzero;fill:rgb(100%,100%,100%);fill-opacity:1;" d="M 227.410156 209.109375 L 159.324219 209.109375 L 158.394531 155.160156 L 231.992188 158.21875 Z M 227.410156 209.109375 "/>
<path style=" stroke:none;fill-rule:nonzero;fill:rgb(99.215686%,34.901961%,39.607843%);fill-opacity:1;" d="M 237.007812 158.472656 L 148.089844 154.566406 L 148.089844 138.144531 L 232.742188 147.09375 Z M 237.007812 158.472656 "/>
<path style=" stroke:none;fill-rule:nonzero;fill:rgb(99.215686%,34.901961%,39.607843%);fill-opacity:1;" d="M 109.09375 156.359375 L 150.199219 109.339844 L 191.765625 156.359375 L 184.382812 160.480469 L 115.765625 160.449219 Z M 109.09375 156.359375 "/>
<path style=" stroke:none;fill-rule:nonzero;fill:rgb(100%,100%,100%);fill-opacity:1;" d="M 150.199219 193.375 L 115.804688 160.453125 L 150.199219 127.53125 L 184.597656 160.453125 Z M 150.199219 193.375 "/>
<path style=" stroke:none;fill-rule:nonzero;fill:rgb(100%,100%,100%);fill-opacity:1;" d="M 115.804688 160.453125 L 121.929688 209.113281 L 178.648438 209.113281 L 184.601562 160.453125 Z M 115.804688 160.453125 "/>
<path style=" stroke:none;fill-rule:nonzero;fill:rgb(100%,100%,100%);fill-opacity:1;" d="M 183.160156 200.902344 L 186.714844 167.066406 L 227.367188 167.019531 L 223.332031 200.597656 Z M 183.160156 200.902344 "/>
<use xlink:href="#surface26" mask="url(#mask7)"/>
<path style=" stroke:none;fill-rule:nonzero;fill:rgb(99.215686%,34.901961%,39.607843%);fill-opacity:1;" d="M 143.113281 209.097656 L 157.097656 209.097656 L 158.292969 186.832031 L 141.972656 186.832031 Z M 143.113281 209.097656 "/>
<path style=" stroke:none;fill-rule:nonzero;fill:rgb(100%,100%,100%);fill-opacity:1;" d="M 135.550781 184.683594 L 134.476562 154.628906 L 165.535156 153.800781 L 164.40625 184.460938 Z M 135.550781 184.683594 "/>
<use xlink:href="#surface29" mask="url(#mask8)"/>
<path style=" stroke:none;fill-rule:nonzero;fill:rgb(99.215686%,34.901961%,39.607843%);fill-opacity:1;" d="M 160.296875 209.125 L 140.023438 209.125 L 140.832031 205.390625 L 159.421875 205.085938 Z M 160.296875 209.125 "/>
<path style=" stroke:none;fill-rule:nonzero;fill:rgb(100%,100%,100%);fill-opacity:1;" d="M 148.726562 154.214844 L 148.875 184.210938 L 150.507812 184.363281 L 150.507812 153.460938 Z M 148.726562 154.214844 "/>
<path style=" stroke:none;fill-rule:nonzero;fill:rgb(100%,100%,100%);fill-opacity:1;" d="M 134.421875 166.871094 L 165.667969 166.324219 L 165.492188 165.054688 L 134.773438 165.328125 Z M 134.421875 166.871094 "/>
<path style=" stroke:none;fill-rule:nonzero;fill:rgb(99.215686%,34.901961%,39.607843%);fill-opacity:1;" d="M 115.804688 160.453125 L 114.167969 159.542969 L 150.386719 123.847656 L 186.761719 159.054688 L 184.59375 160.453125 L 150.195312 127.53125 Z M 115.804688 160.453125 "/>
<path style=" stroke:none;fill-rule:nonzero;fill:rgb(99.215686%,34.901961%,39.607843%);fill-opacity:1;" d="M 250.886719 208.320312 L 106.0625 208.320312 L 101.859375 214.441406 L 254.40625 214.441406 Z M 250.886719 208.320312 "/>
<path style="fill-rule:nonzero;fill:rgb(100%,100%,100%);fill-opacity:1;stroke-width:1;stroke-linecap:butt;stroke-linejoin:miter;stroke:rgb(99.215686%,34.901961%,39.607843%);stroke-opacity:1;stroke-miterlimit:4;" d="M 110.791672 148.087357 L 169.040305 148.087357 C 173.786901 148.087357 177.433357 152.464143 177.139551 157.817435 L 175.526884 187.554768 C 175.236343 192.90806 171.116532 197.288027 166.369936 197.288027 L 159.625461 197.288027 L 162.380706 207.495225 L 149.198619 197.288027 L 108.121304 197.288027 C 103.374708 197.288027 99.731516 192.90806 100.022057 187.554768 L 101.634724 157.817435 C 101.925266 152.464143 106.04834 148.087357 110.791672 148.087357 Z M 110.791672 148.087357 " transform="matrix(1.196581,0,0,1.22807,-119.063419,-160.486667)"/>
<path style=" stroke:none;fill-rule:nonzero;fill:rgb(99.215686%,34.901961%,39.607843%);fill-opacity:1;" d="M 80.664062 40.503906 L 14.179688 40.503906 C 13.609375 40.507812 13.0625 40.269531 12.671875 39.839844 C 12.277344 39.414062 12.078125 38.835938 12.121094 38.25 C 12.210938 36.996094 13.222656 36.019531 14.449219 36 L 80.933594 36 C 81.503906 35.996094 82.050781 36.234375 82.441406 36.664062 C 82.832031 37.089844 83.03125 37.667969 82.992188 38.25 C 82.898438 39.507812 81.890625 40.484375 80.664062 40.503906 Z M 80.664062 40.503906 "/>
<path style=" stroke:none;fill-rule:nonzero;fill:rgb(99.215686%,34.901961%,39.607843%);fill-opacity:1;" d="M 41.316406 53.835938 L 13.390625 53.835938 C 12.816406 53.84375 12.269531 53.601562 11.878906 53.175781 C 11.488281 52.746094 11.289062 52.171875 11.332031 51.585938 C 11.421875 50.328125 12.433594 49.351562 13.660156 49.335938 L 41.585938 49.335938 C 42.160156 49.328125 42.707031 49.570312 43.097656 49.996094 C 43.488281 50.421875 43.6875 51 43.648438 51.585938 C 43.554688 52.839844 42.546875 53.816406 41.316406 53.835938 Z M 41.316406 53.835938 "/>
<path style=" stroke:none;fill-rule:nonzero;fill:rgb(99.215686%,34.901961%,39.607843%);fill-opacity:1;" d="M 65.183594 67.171875 L 12.589844 67.171875 C 12.019531 67.175781 11.46875 66.9375 11.078125 66.507812 C 10.6875 66.078125 10.488281 65.503906 10.53125 64.917969 C 10.621094 63.664062 11.632812 62.6875 12.859375 62.667969 L 65.449219 62.667969 C 66.023438 62.660156 66.570312 62.902344 66.960938 63.328125 C 67.351562 63.757812 67.550781 64.332031 67.511719 64.917969 C 67.417969 66.171875 66.410156 67.152344 65.183594 67.171875 Z M 65.183594 67.171875 "/>
<path style=" stroke:none;fill-rule:nonzero;fill:rgb(99.215686%,34.901961%,39.607843%);fill-opacity:1;" d="M 61.761719 53.835938 L 50.773438 53.835938 C 50.203125 53.84375 49.65625 53.601562 49.265625 53.175781 C 48.871094 52.746094 48.671875 52.171875 48.714844 51.585938 C 48.808594 50.328125 49.816406 49.351562 51.042969 49.335938 L 62.03125 49.335938 C 62.601562 49.328125 63.152344 49.566406 63.542969 49.996094 C 63.933594 50.421875 64.132812 51 64.089844 51.585938 C 64 52.839844 62.988281 53.816406 61.761719 53.835938 Z M 61.761719 53.835938 "/>
<path style=" stroke:none;fill-rule:nonzero;fill:rgb(100%,100%,100%);fill-opacity:1;" d="M 265.90625 29.464844 L 223.050781 29.464844 C 217.984375 29.546875 213.8125 33.578125 213.433594 38.765625 L 211.738281 67.183594 C 211.566406 69.601562 212.390625 71.980469 214.003906 73.746094 C 215.621094 75.511719 217.882812 76.503906 220.246094 76.480469 L 227.328125 76.480469 L 223.269531 86.238281 L 238.273438 76.480469 L 263.105469 76.480469 C 268.171875 76.402344 272.34375 72.367188 272.722656 67.183594 L 274.417969 38.765625 C 274.589844 36.347656 273.765625 33.96875 272.148438 32.199219 C 270.53125 30.433594 268.269531 29.441406 265.90625 29.464844 Z M 265.90625 29.464844 "/>
<path style="fill-rule:nonzero;fill:rgb(100%,100%,100%);fill-opacity:1;stroke-width:1;stroke-linecap:butt;stroke-linejoin:miter;stroke:rgb(99.215686%,34.901961%,39.607843%);stroke-opacity:1;stroke-miterlimit:4;" d="M 217.240652 82.186801 L 181.425724 82.186801 C 177.191656 82.253598 173.705161 85.536188 173.388503 89.760295 L 171.971706 112.900641 C 171.828068 114.869558 172.516879 116.806667 173.865122 118.244391 C 175.216628 119.682114 177.106779 120.490038 179.081807 120.470953 L 185.000362 120.470953 L 181.608537 128.4166 L 194.147516 120.470953 L 214.899999 120.470953 C 219.134067 120.407337 222.620563 117.121567 222.93722 112.900641 L 224.354017 89.760295 C 224.497655 87.791377 223.808844 85.854268 222.457337 84.413364 C 221.10583 82.975641 219.21568 82.167717 217.240652 82.186801 Z M 217.240652 82.186801 " transform="matrix(1.196581,0,0,1.22807,5.960171,-71.466316)"/>
<path style=" stroke:none;fill-rule:nonzero;fill:rgb(99.215686%,34.901961%,39.607843%);fill-opacity:1;" d="M 245.242188 57.625 C 244.941406 58.917969 243.820312 59.832031 242.523438 59.835938 L 239.992188 59.835938 C 240.023438 59.097656 240.046875 58.648438 240.054688 58.484375 C 240.09375 57.050781 240.453125 55.640625 241.105469 54.371094 C 242.023438 52.953125 243.1875 51.722656 244.542969 50.742188 C 245.621094 49.941406 246.640625 49.058594 247.589844 48.101562 C 248.09375 47.488281 248.394531 46.726562 248.445312 45.921875 C 248.523438 44.851562 248.109375 43.804688 247.328125 43.089844 C 246.390625 42.257812 245.167969 41.835938 243.929688 41.910156 C 242.628906 41.875 241.359375 42.3125 240.339844 43.140625 C 239.734375 43.652344 239.242188 44.285156 238.882812 45.003906 C 238.363281 46.089844 237.242188 46.730469 236.066406 46.621094 C 235.230469 46.511719 234.507812 45.972656 234.144531 45.191406 C 233.785156 44.410156 233.835938 43.496094 234.28125 42.761719 C 234.867188 41.753906 235.621094 40.859375 236.503906 40.117188 C 238.609375 38.382812 241.253906 37.488281 243.953125 37.597656 C 246.652344 37.429688 249.308594 38.34375 251.363281 40.144531 C 253.039062 41.621094 253.949219 43.816406 253.816406 46.082031 C 253.730469 47.359375 253.300781 48.589844 252.574219 49.632812 C 251.214844 51.351562 249.640625 52.882812 247.894531 54.1875 C 246.988281 54.839844 246.203125 55.652344 245.578125 56.585938 C 245.421875 56.914062 245.304688 57.265625 245.242188 57.625 Z M 239.699219 64.773438 L 239.71875 64.460938 C 239.820312 62.96875 241.023438 61.804688 242.484375 61.785156 L 242.789062 61.785156 C 243.46875 61.777344 244.121094 62.0625 244.585938 62.570312 C 245.050781 63.078125 245.289062 63.765625 245.234375 64.460938 L 245.21875 64.773438 C 245.113281 66.269531 243.910156 67.429688 242.453125 67.449219 L 242.144531 67.449219 C 241.464844 67.457031 240.816406 67.171875 240.347656 66.664062 C 239.882812 66.15625 239.648438 65.472656 239.699219 64.777344 Z M 239.699219 64.773438 "/>
<path style=" stroke:none;fill-rule:nonzero;fill:rgb(25.098039%,48.235294%,100%);fill-opacity:1;" d="M 187.640625 9.175781 L 144.785156 9.175781 C 139.71875 9.253906 135.546875 13.289062 135.167969 18.472656 L 133.472656 46.890625 C 133.300781 49.308594 134.125 51.6875 135.738281 53.457031 C 137.355469 55.222656 139.621094 56.214844 141.980469 56.191406 L 149.0625 56.191406 L 145.003906 65.945312 L 160.007812 56.191406 L 184.839844 56.191406 C 189.90625 56.109375 194.078125 52.078125 194.457031 46.890625 L 196.152344 18.476562 C 196.324219 16.058594 195.5 13.675781 193.882812 11.910156 C 192.265625 10.140625 190.003906 9.148438 187.640625 9.175781 Z M 187.640625 9.175781 "/>
<path style="fill-rule:nonzero;fill:rgb(100%,100%,100%);fill-opacity:1;stroke-width:1;stroke-linecap:butt;stroke-linejoin:miter;stroke:rgb(99.215686%,34.901961%,39.607843%);stroke-opacity:1;stroke-miterlimit:4;" d="M 217.239951 82.188708 L 181.425023 82.188708 C 177.190955 82.252324 173.70446 85.538094 173.387802 89.75902 L 171.971006 112.899366 C 171.827367 114.868283 172.516179 116.805393 173.864421 118.246297 C 175.215927 119.68402 177.109343 120.491944 179.081106 120.472859 L 184.999661 120.472859 L 181.607836 128.415326 L 194.146815 120.472859 L 214.899298 120.472859 C 219.133366 120.406063 222.619862 117.123473 222.936519 112.899366 L 224.353316 89.762201 C 224.496954 87.793283 223.808143 85.852993 222.456636 84.41527 C 221.105129 82.974366 219.214979 82.166442 217.239951 82.188708 Z M 217.239951 82.188708 " transform="matrix(1.196581,0,0,1.22807,-72.304615,-91.757719)"/>
<path style=" stroke:none;fill-rule:nonzero;fill:rgb(99.215686%,34.901961%,39.607843%);fill-opacity:1;" d="M 163.6875 43.695312 L 163.6875 43.632812 C 161.75 42.007812 160.03125 40.128906 158.582031 38.035156 C 157.449219 36.398438 156.5 34.640625 155.75 32.789062 C 155.023438 31.0625 154.527344 29.242188 154.28125 27.375 C 154.25 26.988281 154.234375 26.65625 154.234375 26.363281 C 154.234375 22.421875 156.546875 18.871094 160.09375 17.363281 C 163.640625 15.855469 167.722656 16.6875 170.433594 19.476562 C 172.21875 21.296875 173.21875 23.777344 173.214844 26.363281 C 173.214844 26.699219 173.195312 27.039062 173.164062 27.375 L 173.175781 27.375 L 173.175781 27.382812 C 172.921875 29.242188 172.425781 31.0625 171.699219 32.785156 C 170.953125 34.640625 170.003906 36.398438 168.871094 38.035156 C 167.421875 40.125 165.707031 42.007812 163.769531 43.628906 L 163.769531 43.691406 C 163.753906 43.683594 163.742188 43.671875 163.730469 43.660156 L 163.714844 43.671875 L 163.707031 43.679688 C 163.703125 43.683594 163.699219 43.6875 163.695312 43.691406 Z M 163.722656 22.5 C 163.449219 22.503906 163.171875 22.535156 162.90625 22.601562 C 161.007812 23.066406 159.835938 25.019531 160.289062 26.96875 C 160.5 27.90625 161.070312 28.714844 161.867188 29.222656 C 162.667969 29.726562 163.628906 29.882812 164.542969 29.660156 C 165.863281 29.335938 166.890625 28.265625 167.179688 26.90625 C 167.46875 25.542969 166.972656 24.132812 165.902344 23.273438 C 165.28125 22.777344 164.515625 22.503906 163.730469 22.5 Z M 163.722656 22.5 "/>
</g>
</svg>
