<svg width="51" height="44" viewBox="0 0 51 44" fill="none" xmlns="http://www.w3.org/2000/svg">
<path d="M36.5 16.8179C29.0469 16.8179 23 22.7914 23 30.1542C23 37.5169 29.0469 43.4905 36.5 43.4905C43.9531 43.4905 50 37.5169 50 30.1542C50 22.7914 43.9531 16.8179 36.5 16.8179ZM43.4469 26.9312L35.5156 34.7941C35.2625 35.0441 34.8969 35.2108 34.5312 35.2108C34.1654 35.2108 33.8 35.0718 33.5467 34.7941L29.5531 30.8488C28.9907 30.2931 28.9907 29.4318 29.5531 28.876C30.1156 28.3204 30.9875 28.3204 31.5501 28.876L34.5313 31.8211L41.4782 24.9584C42.0406 24.4028 42.9125 24.4028 43.4752 24.9584C44.0094 25.5143 44.0094 26.3755 43.4469 26.9312L43.4469 26.9312Z" fill="white" stroke="#222222"/>
<path d="M13.6592 19.9499L13.6768 19.9691C13.7259 20.023 13.823 20.0751 13.9589 20.0751C14.0494 20.0751 14.1824 20.0249 14.2768 19.9319C14.2769 19.9318 14.277 19.9316 14.2771 19.9315L22.3899 11.8888L22.3903 11.888L22.5013 11.7783L22.5026 11.777C22.6897 11.5922 22.6926 11.3305 22.5226 11.1449C22.329 10.9624 22.057 10.9656 21.8664 11.1539L14.6618 18.2711L13.9591 18.9653L13.2563 18.2711L10.1646 15.2169C9.97056 15.0253 9.69285 15.0254 9.49912 15.2166L13.6592 19.9499ZM13.6592 19.9499L13.6407 19.9316M13.6592 19.9499L13.6407 19.9316M13.6407 19.9316L9.49901 15.8399L9.499 15.8399M13.6407 19.9316L9.499 15.8399M9.499 15.8399C9.31209 15.6552 9.31186 15.4018 9.499 15.2168V15.8399ZM16.0008 1C7.73045 1 1 7.63135 1 15.8309C1 24.0305 7.73045 30.6619 16.0008 30.6619C24.2711 30.6619 31.0016 24.0305 31.0016 15.8309C31.0016 7.63135 24.2711 1 16.0008 1Z" fill="#222222" stroke="white" stroke-width="2"/>
</svg>
