<svg width="46" height="45" viewBox="0 0 46 45" fill="none" xmlns="http://www.w3.org/2000/svg">
<path d="M44.4533 25.4912L44.9029 24.9262C45.6932 23.9327 45.7092 22.5322 44.9415 21.5214C44.475 20.9069 43.7646 20.5062 42.9922 20.4206C42.2223 20.3373 41.438 20.5718 40.8451 21.0695L38.2596 23.241C38.2132 23.1661 38.1685 23.0905 38.1154 23.0206C37.6488 22.4061 36.9384 22.0054 36.1661 21.9198C35.7299 21.872 35.2952 21.9362 34.8895 22.0817L34.8898 12.9535L36.7603 14.1202C36.8832 14.1975 37.0233 14.2363 37.1645 14.2363C37.2905 14.2363 37.4165 14.2055 37.5309 14.1433C37.7727 14.0115 37.923 13.7596 37.923 13.487V9.74069C37.923 9.4838 37.7896 9.24464 37.5695 9.10683L23.1587 0.115652C22.9115 -0.0385507 22.5959 -0.0385507 22.3487 0.115652L7.93791 9.10683C7.71782 9.24464 7.58441 9.4838 7.58441 9.74069V13.487C7.58441 13.7596 7.73475 14.0115 7.97651 14.1433C8.21759 14.2744 8.51285 14.2661 8.74784 14.1209L10.6183 12.9535V31.1927C5.84903 34.2296 2.1394 38.6817 0.0526221 43.9337C-0.0391391 44.1645 -0.00968066 44.4244 0.131516 44.6297C0.27305 44.8338 0.507698 44.9565 0.758607 44.9565H15.7095C16.0196 44.9565 16.2986 44.7699 16.4141 44.4852L16.7744 43.5945C17.3855 42.0846 18.7799 41.0163 20.4113 40.8065L31.4432 39.3852C33.7529 39.0878 35.931 38.0275 37.5783 36.4008L44.6137 29.4507C45.1379 28.9329 45.4298 28.2151 45.4139 27.4826C45.3979 26.7393 45.08 26.05 44.5196 25.5419C44.4993 25.5221 44.475 25.5094 44.4536 25.4914L44.4533 25.4912ZM35.0015 23.7087C35.2798 23.4749 35.634 23.3672 35.9973 23.4083C36.3606 23.4488 36.6823 23.6301 36.9021 23.9194C36.9749 24.0144 37.0318 24.1218 37.0741 24.2355L34.8891 26.0695V23.803L35.0015 23.7087ZM23.5119 2.10844L36.4058 10.1533V12.1268L23.5119 4.0823V2.10844ZM22.7534 13.0443L23.3883 12.4171C24.9766 10.848 27.5591 10.8496 29.1458 12.4171C30.7331 13.9846 30.7331 16.5367 29.1458 18.1048L23.2897 23.8899C23.1417 24.0361 22.9477 24.1094 22.7534 24.1094C22.5593 24.1094 22.365 24.0358 22.217 23.8899L16.3609 18.1048C14.7736 16.5368 14.7736 13.9846 16.3609 12.4171C17.9482 10.849 20.5311 10.849 22.1185 12.4171L22.7534 13.0443ZM9.10102 12.1281V10.1546L21.9949 2.1087V4.08222L9.10102 12.1281ZM43.5414 28.3902L36.506 35.3403C35.0943 36.7348 33.2263 37.643 31.2468 37.8981L20.2148 39.3194C18.0387 39.5997 16.1814 41.024 15.3651 43.0373L15.1951 43.4578H1.89726C4.22276 38.2855 8.24704 34.0153 13.328 31.3582L14.9163 30.528C16.6205 29.6366 18.4713 29.2215 20.7423 29.2215H25.84C26.4779 29.2215 27.023 29.6627 27.0799 30.2269C27.1124 30.5514 27.0109 30.8608 26.7925 31.099C26.5771 31.3345 26.269 31.4693 25.9483 31.4693H19.5014C19.0829 31.4693 18.7429 31.8051 18.7429 32.2185C18.7429 32.632 19.0829 32.9678 19.5014 32.9678H33.9122C34.0896 32.9678 34.261 32.9063 34.3978 32.7939L41.83 26.6753C42.3298 26.2656 43.0612 26.2505 43.4942 26.6439C43.7468 26.873 43.8901 27.1817 43.8978 27.5129C43.905 27.8443 43.7783 28.1561 43.5416 28.3899L43.5414 28.3902ZM43.7097 23.9999L43.0067 24.8833C42.2642 24.8047 41.4824 25.0114 40.858 25.5245L34.8888 30.4392V28.0356L41.8274 22.2101C42.1058 21.9763 42.4593 21.8692 42.8232 21.9097C43.1866 21.9502 43.5082 22.1315 43.728 22.4208C44.0839 22.8891 44.0768 23.5393 43.7097 23.9999L43.7097 23.9999Z" fill="#222222"/>
</svg>
