<svg width="49" height="41" viewBox="0 0 49 41" fill="none" xmlns="http://www.w3.org/2000/svg">
<path fill-rule="evenodd" clip-rule="evenodd" d="M34.6207 0.00018527C37.3344 0.00018527 39.5936 2.16523 39.5936 4.84479V7.25879H43.4826C46.1962 7.25879 48.4554 9.43752 48.4554 12.1376V26.7224C48.4554 29.4225 46.1961 31.6012 43.4826 31.6012H43.2245V39.1656V39.1652C43.2306 39.6251 42.9433 40.0387 42.507 40.1992C42.0706 40.3593 41.5794 40.2311 41.2801 39.8793L34.0187 31.6008H13.8348C11.1211 31.6008 8.86188 29.4123 8.86188 26.722V24.308H4.97288C2.2592 24.308 0 22.1327 0 19.4634V4.8446C0 2.17534 2.2593 0 4.97288 0H34.621L34.6207 0.00018527ZM43.4826 9.43441H13.8345C12.3084 9.43441 11.0639 10.6345 11.0639 12.1371V26.7219C11.0639 28.2245 12.3084 29.4246 13.8345 29.4246H34.5179H34.5175C34.8406 29.4212 35.149 29.5582 35.361 29.7987L41.0222 36.2411V30.5124V30.5127C41.0222 29.9117 41.5154 29.4249 42.1234 29.4245H43.4827C45.0087 29.4245 46.2532 28.2141 46.2532 26.7219V12.1371C46.2532 10.6448 45.0087 9.43437 43.4827 9.43437L43.4826 9.43441Z" fill="#222222"/>
<path fill-rule="evenodd" clip-rule="evenodd" d="M28.9447 16.7559C30.6224 16.7559 32.0102 18.1058 32.0102 19.7488C32.0102 21.3917 30.6225 22.7417 28.9447 22.7417C27.2539 22.7417 25.8516 21.3917 25.8516 19.7488C25.8516 18.1058 27.2539 16.7559 28.9447 16.7559Z" fill="#222222"/>
<path fill-rule="evenodd" clip-rule="evenodd" d="M38.1612 16.7559C39.8389 16.7559 41.2535 18.0869 41.2535 19.7488C41.2535 21.4107 39.8389 22.7417 38.1612 22.7417C36.4835 22.7417 35.0957 21.3917 35.0957 19.7488C35.0957 18.1058 36.4838 16.7559 38.1612 16.7559Z" fill="#222222"/>
<path fill-rule="evenodd" clip-rule="evenodd" d="M19.7144 16.7532C21.3903 16.7532 22.7965 18.0895 22.7965 19.7483C22.7965 21.4071 21.3903 22.7434 19.7144 22.7434C18.0386 22.7434 16.6328 21.4071 16.6328 19.7483C16.6328 18.0895 18.0386 16.7532 19.7144 16.7532Z" fill="#222222"/>
</svg>
